<svg xmlns="http://www.w3.org/2000/svg" width="383" height="147" viewBox="0 0 383 147">
<g transform="translate(0,147) scale(0.1,-0.1)" stroke="none">
<path d="M1060 1440 c-8 -6 -52 -22 -97 -36 -90 -29 -101 -42 -58 -76 14 -11 25 -24 25 -31 0 -6 -61 -209 -135 -452 -74 -242 -135 -457 -135 -477 0 -19 7 -41 15 -48 24 -20 83 -5 140 35 52 35 145 140 145 162 0 24 -22 25 -38 2 -32 -47 -85 -99 -98 -99 -9 0 -14 11 -14 31 0 17 65 245 145 507 79 261 142 479 139 483 -7 11 -15 11 -34 -1z"/>
<path d="M440 1372 c-101 -34 -185 -98 -254 -196 -148 -208 -212 -508 -149 -700 65 -200 333 -223 517 -44 92 89 67 109 -37 30 -137 -104 -275 -93 -331 27 -18 40 -21 63 -20 176 1 161 30 281 104 431 60 124 128 202 202 234 121 52 198 -24 198 -195 0 -38 3 -45 20 -45 16 0 25 17 50 98 44 143 44 143 -13 171 -67 33 -208 39 -287 13z"/>
<path d="M2667 1359 c-25 -15 -57 -83 -57 -123 0 -49 36 -74 76 -54 39 19 65 59 71 110 4 33 1 49 -12 61 -18 19 -51 22 -78 6z"/>
<path d="M2997 1135 c-32 -35 -85 -81 -117 -101 -69 -42 -79 -68 -25 -62 19 2 35 2 35 -2 0 -3 -36 -122 -80 -265 -96 -311 -100 -330 -70 -367 27 -35 67 -36 135 -4 57 26 168 124 191 167 24 48 -4 44 -60 -9 -56 -53 -103 -82 -123 -75 -25 9 -12 72 61 314 l74 244 68 3 c69 3 84 11 84 45 0 14 -10 17 -65 17 -36 0 -65 1 -65 3 0 1 9 34 20 72 11 38 20 73 20 77 0 22 -31 1 -83 -57z"/>
<path d="M1360 1038 c-67 -26 -180 -135 -227 -218 -69 -124 -110 -288 -98 -389 6 -44 14 -62 40 -88 38 -38 76 -43 130 -17 33 15 120 101 162 159 l22 30 -19 -63 c-23 -73 -25 -113 -8 -130 36 -36 144 12 223 100 56 62 73 94 58 109 -7 7 -22 -6 -49 -38 -44 -55 -64 -72 -81 -73 -26 0 -11 62 67 286 49 139 80 240 78 258 -8 80 -174 121 -298 74z m162 -48 c19 -26 19 -27 -12 -115 -112 -318 -298 -568 -341 -457 -33 83 74 420 166 524 69 79 149 99 187 48z"/>
<path d="M1962 1045 c-50 -22 -100 -64 -153 -129 -38 -47 -46 -63 -37 -74 9 -11 22 -2 66 47 59 67 82 76 82 34 0 -14 -37 -147 -81 -294 -45 -147 -79 -275 -75 -284 4 -12 17 -15 53 -13 47 3 48 4 75 58 15 30 72 148 127 262 96 197 156 288 189 288 7 0 24 -13 39 -30 14 -16 36 -30 48 -30 32 0 72 35 85 74 27 83 -49 132 -143 92 -58 -24 -147 -149 -228 -320 -16 -34 -29 -57 -29 -52 0 5 18 68 40 140 48 155 58 210 40 231 -15 19 -55 19 -98 0z"/>
<path d="M2562 1045 c-50 -22 -100 -64 -153 -129 -38 -47 -46 -63 -37 -74 9 -11 22 -2 66 47 111 125 109 71 -8 -240 -109 -289 -114 -339 -38 -339 61 0 168 79 230 168 25 36 28 46 17 53 -10 6 -23 -2 -44 -28 -68 -86 -105 -105 -105 -55 0 16 41 137 90 270 50 133 91 257 92 276 2 63 -39 82 -110 51z"/>
<path d="M3324 1041 c-51 -31 -162 -180 -149 -200 11 -18 21 -12 47 27 36 54 75 92 92 92 39 0 70 -132 106 -443 l21 -187 -20 -29 c-11 -15 -47 -53 -79 -83 -94 -86 -160 -109 -198 -67 -31 34 -53 42 -84 29 -49 -20 -69 -110 -32 -143 22 -20 89 -22 129 -5 168 73 425 378 573 680 68 140 89 220 71 278 -24 79 -137 95 -170 24 -13 -29 -7 -47 31 -95 38 -47 44 -93 23 -165 -23 -78 -130 -292 -142 -281 -2 3 -11 71 -19 153 -26 256 -66 411 -109 428 -29 11 -59 6 -91 -13z"/>
</g>
</svg>
